<svg width="100" height="100" viewBox="0 0 100 100" fill="none" xmlns="http://www.w3.org/2000/svg">
<path d="M85.3715 14.6298C65.8623 -4.87528 34.1349 -4.87528 14.6258 14.6298C-4.87494 34.1348 -4.87494 65.8704 14.6258 85.3754C24.3804 95.1259 37.1905 99.9989 50.0008 99.9989C62.8111 99.9989 75.6169 95.1257 85.3715 85.3754C104.877 65.8706 104.877 34.1348 85.3715 14.6298ZM70.6312 64.7407C72.261 66.3706 72.261 69.0052 70.6312 70.6351C69.8183 71.448 68.7512 71.8566 67.6839 71.8566C66.6168 71.8566 65.5495 71.448 64.7366 70.6351L50.0006 55.8948L35.2687 70.6308C34.4517 71.4437 33.3844 71.8523 32.3214 71.8523C31.2543 71.8523 30.187 71.4437 29.3741 70.6308C27.7443 69.0009 27.7443 66.3622 29.3741 64.7364L44.106 50.0004L29.37 35.2644C27.7401 33.6346 27.7401 30.9958 29.37 29.3701C30.9958 27.7402 33.6345 27.7402 35.2644 29.3701L50.0004 44.1061L64.7364 29.3701C66.3663 27.7402 69.0009 27.7402 70.6308 29.3701C72.2606 30.9958 72.2606 33.6346 70.6308 35.2644L55.8948 50.0004L70.6312 64.7407Z" fill="#777777"/>
</svg>
