<svg width="80" height="80" viewBox="0 0 80 80" fill="none" xmlns="http://www.w3.org/2000/svg">
<path d="M9.2 12.798L0 14.067L7.0069 64.6739L57.6138 57.667L57.0483 53.598L52.2621 18.9773L50.6069 7.06006L39.8759 8.54971" fill="#58469B"/>
<path d="M8.35547 6.66577L39.0409 2.42368L40.7378 14.6984L10.0524 18.9405L8.35547 6.66577Z" fill="#FF8C47"/>
<path d="M9.59766 28.6082L42.3627 25.2493L42.6442 27.9955L9.87918 31.3544L9.59766 28.6082Z" fill="white"/>
<path d="M24.3359 35.7473L37.8209 34.6653L38.0417 37.417L24.5567 38.499L24.3359 35.7473Z" fill="#FF8C47"/>
<path d="M10.8516 36.8335L17.5954 36.2924L17.8162 39.0441L11.0724 39.5852L10.8516 36.8335Z" fill="white"/>
<path d="M11.4688 47.032L42.4071 43.7671L42.6966 46.5106L11.7583 49.7754L11.4688 47.032Z" fill="white"/>
<path d="M57.6189 53.6047C67.41 53.6047 75.3472 45.6675 75.3472 35.8765C75.3472 26.0854 67.41 18.1482 57.6189 18.1482C47.8278 18.1482 39.8906 26.0854 39.8906 35.8765C39.8906 45.6675 47.8278 53.6047 57.6189 53.6047Z" fill="#ACA2CD"/>
<path d="M57.6194 50.6739C65.797 50.6739 72.4263 44.0446 72.4263 35.867C72.4263 27.6893 65.797 21.0601 57.6194 21.0601C49.4418 21.0601 42.8125 27.6893 42.8125 35.867C42.8125 44.0446 49.4418 50.6739 57.6194 50.6739Z" fill="white"/>
<path d="M64.1094 52.45L66.5977 51.2555L71.4891 61.445L69.0008 62.6394L64.1094 52.45Z" fill="#ACA2CD"/>
<path d="M77.4896 77.1386C75.2841 78.2006 72.6358 77.2737 71.5737 75.0682L65.1641 61.7579L68.5158 58.5041L73.1503 57.9124L79.5599 71.2227C80.622 73.4282 79.6951 76.0765 77.4896 77.1386Z" fill="#ACA2CD"/>
<path opacity="0.1" d="M57.0489 53.598V53.5843C47.5317 53.2946 39.8903 45.4739 39.8903 35.8739C39.8903 27.9429 45.0903 21.2394 52.2627 18.9774L51.8489 15.9705C42.842 18.1636 36.1523 26.2739 36.1523 35.9567C36.1523 47.3084 45.3661 56.5222 56.7179 56.5222C56.9661 56.5222 57.2006 56.5222 57.4489 56.5084L57.0489 53.598Z" fill="black"/>
</svg>
