<svg width="24" height="24" viewBox="0 0 24 24" fill="none" xmlns="http://www.w3.org/2000/svg">
<path d="M13.999 1.99951H5.99902C5.46859 1.99951 4.95988 2.21023 4.58481 2.5853C4.20974 2.96037 3.99902 3.46908 3.99902 3.99951V19.9995C3.99902 20.5299 4.20974 21.0387 4.58481 21.4137C4.95988 21.7888 5.46859 21.9995 5.99902 21.9995H17.999C18.5295 21.9995 19.0382 21.7888 19.4132 21.4137C19.7883 21.0387 19.999 20.5299 19.999 19.9995V7.99951L13.999 1.99951Z" stroke="#B88B34" stroke-linecap="round" stroke-linejoin="round"/>
<path d="M16.001 16.9995H8.00098" stroke="#B88B34" stroke-linecap="round" stroke-linejoin="round"/>
<path d="M16.001 13.0005H8.00098" stroke="#B88B34" stroke-linecap="round" stroke-linejoin="round"/>
<path d="M10.001 9H9.00098H8.00098" stroke="#B88B34" stroke-linecap="round" stroke-linejoin="round"/>
<path d="M14.001 1.99951V7.99951H20.001" stroke="#B88B34" stroke-linecap="round" stroke-linejoin="round"/>
</svg>
