<svg width="24" height="24" viewBox="0 0 24 24" fill="none" xmlns="http://www.w3.org/2000/svg">
<path d="M23.001 21.0004V19.0004C23.0003 18.1141 22.7053 17.2531 22.1623 16.5527C21.6194 15.8522 20.8591 15.3519 20.001 15.1304" stroke="#3F6F9B" stroke-linecap="round" stroke-linejoin="round"/>
<path d="M16.999 21V19C16.999 17.9391 16.5776 16.9217 15.8275 16.1716C15.0773 15.4214 14.0599 15 12.999 15H4.99902C3.93816 15 2.92074 15.4214 2.1706 16.1716C1.42045 16.9217 0.999023 17.9391 0.999023 19V21" stroke="#3F6F9B" stroke-linecap="round" stroke-linejoin="round"/>
<path d="M15.999 3.13037C16.8594 3.35067 17.6221 3.85107 18.1667 4.55268C18.7113 5.25429 19.0069 6.1172 19.0069 7.00537C19.0069 7.89354 18.7113 8.75645 18.1667 9.45806C17.6221 10.1597 16.8594 10.6601 15.999 10.8804" stroke="#3F6F9B" stroke-linecap="round" stroke-linejoin="round"/>
<path d="M9.00098 11C11.2101 11 13.001 9.20914 13.001 7C13.001 4.79086 11.2101 3 9.00098 3C6.79184 3 5.00098 4.79086 5.00098 7C5.00098 9.20914 6.79184 11 9.00098 11Z" stroke="#3F6F9B" stroke-linecap="round" stroke-linejoin="round"/>
</svg>
