<svg width="16" height="16" viewBox="0 0 16 16" fill="none" xmlns="http://www.w3.org/2000/svg">
<path d="M1.20968 13.2524L1.91532 14.4713C2.06194 14.7279 2.27271 14.9295 2.52015 15.0761C3.22887 14.1765 3.72221 13.4861 4.00017 13.005C4.28225 12.5168 4.62896 11.7531 5.04032 10.714C3.93178 10.5681 3.09173 10.4951 2.52015 10.4951C1.97166 10.4951 1.13161 10.5681 0 10.714C0 10.9981 0.0733142 11.2822 0.219941 11.5387L1.20968 13.2524Z" fill="#0066DA"/>
<path d="M13.4797 15.0761C13.7272 14.9295 13.938 14.7279 14.0846 14.4713L14.3778 13.9673L15.78 11.5387C15.9266 11.2822 15.9999 10.9981 15.9999 10.714C14.8617 10.5681 14.0232 10.4951 13.4843 10.4951C12.9052 10.4951 12.0667 10.5681 10.9688 10.714C11.3752 11.7588 11.7174 12.5225 11.9951 13.005C12.2754 13.4918 12.7702 14.1822 13.4797 15.0761Z" fill="#EA4335"/>
<path d="M8.00063 5.5821C8.82065 4.59171 9.38578 3.82803 9.69601 3.29105C9.94581 2.85866 10.2207 2.16829 10.5208 1.21994C10.2733 1.07331 9.98925 1 9.69601 1H6.30526C6.012 1 5.72791 1.08248 5.48047 1.21994C5.86212 2.30761 6.18597 3.08168 6.452 3.54217C6.746 4.05105 7.26221 4.73103 8.00063 5.5821Z" fill="#00832D"/>
<path d="M10.9597 10.7139H5.03968L2.51953 15.076C2.76697 15.2227 3.05106 15.296 3.34432 15.296H12.6551C12.9484 15.296 13.2325 15.2135 13.4799 15.076L10.9597 10.7139Z" fill="#2684FC"/>
<path d="M8.00034 5.58213L5.4802 1.21997C5.23276 1.3666 5.02197 1.5682 4.87535 1.82481L0.219941 9.8893C0.0733142 10.1459 0 10.43 0 10.7141H5.04032L8.00034 5.58213Z" fill="#00AC47"/>
<path d="M13.4527 5.85706L11.125 1.82481C10.9784 1.5682 10.7676 1.3666 10.5201 1.21997L8 5.58213L10.96 10.7141H15.9912C15.9912 10.43 15.9179 10.1459 15.7712 9.8893L13.4527 5.85706Z" fill="#FFBA00"/>
</svg>
