<svg width="17" height="15" viewBox="0 0 17 15" fill="none" xmlns="http://www.w3.org/2000/svg">
<path d="M8.94 14C8.76667 14 8.61333 13.9619 8.48 13.8857C8.34667 13.8094 8.25 13.7039 8.19 13.569C8.13 13.4342 8.11667 13.2964 8.15 13.1557C8.18333 13.015 8.25333 12.8977 8.36 12.8039L14.56 7.33333L8.36 1.88039C8.28 1.81003 8.22 1.73087 8.18 1.64292C8.14 1.55497 8.12 1.46409 8.12 1.37027C8.12 1.27646 8.14 1.18851 8.18 1.10642C8.22 1.02433 8.28 0.94811 8.36 0.877749C8.44 0.807389 8.53 0.754618 8.63 0.719438C8.73 0.684258 8.82333 0.666668 8.91 0.666668C8.99667 0.666668 9.10667 0.690121 9.24 0.737028C9.33333 0.772208 9.42 0.824979 9.5 0.895339L16.26 6.84081C16.42 6.98153 16.5 7.14864 16.5 7.34213C16.5 7.53562 16.42 7.70273 16.26 7.84345L9.5 13.7889C9.34 13.9296 9.15333 14 8.94 14ZM15.7 8.03694H1.3C1.07333 8.03694 0.883333 7.96951 0.73 7.83465C0.576667 7.6998 0.5 7.53562 0.5 7.34213C0.5 7.14864 0.58 6.98153 0.74 6.84081C0.9 6.70009 1.08667 6.62973 1.3 6.62973H15.7C15.9133 6.62973 16.1 6.70009 16.26 6.84081C16.42 6.98153 16.5 7.14864 16.5 7.34213C16.5 7.53562 16.4233 7.6998 16.27 7.83465C16.1167 7.96951 15.9267 8.03694 15.7 8.03694Z" fill="#322E4A"/>
<path d="M16.26 6.84081L9.5 0.895339C9.42 0.824979 9.33333 0.772208 9.24 0.737028C9.10667 0.690121 8.99667 0.666668 8.91 0.666668C8.82333 0.666668 8.73 0.684258 8.63 0.719438C8.53 0.754618 8.44 0.807389 8.36 0.877749C8.28 0.94811 8.22 1.02433 8.18 1.10642C8.14 1.18851 8.12 1.27646 8.12 1.37027C8.12 1.46409 8.14 1.55497 8.18 1.64292C8.22 1.73087 8.28 1.81003 8.36 1.88039L14.56 7.33333L8.36 12.8039C8.25333 12.8977 8.18333 13.015 8.15 13.1557C8.11667 13.2964 8.13 13.4342 8.19 13.569C8.25 13.7039 8.34667 13.8094 8.48 13.8857C8.61333 13.9619 8.76667 14 8.94 14C9.15333 14 9.34 13.9296 9.5 13.7889L16.26 7.84345C16.42 7.70273 16.5 7.53562 16.5 7.34213M16.26 6.84081C16.42 6.98153 16.5 7.14864 16.5 7.34213M16.26 6.84081C16.1 6.70009 15.9133 6.62973 15.7 6.62973H1.3C1.08667 6.62973 0.9 6.70009 0.74 6.84081C0.58 6.98153 0.5 7.14864 0.5 7.34213C0.5 7.53562 0.576667 7.6998 0.73 7.83465C0.883333 7.96951 1.07333 8.03694 1.3 8.03694H15.7C15.9267 8.03694 16.1167 7.96951 16.27 7.83465C16.4233 7.6998 16.5 7.53562 16.5 7.34213" stroke="#322E4A" stroke-width="0.5"/>
</svg>
