<svg xmlns="http://www.w3.org/2000/svg" width="235" height="31" viewBox="0 0 235 31" fill="none" data-ember-extension="1">
<path d="M81.672 16.7335L79.0466 23.9894H78.6715L76.0028 16.7335L69.0643 0.0578613H62.1401V30.4231H67.0303V12.478L66.7562 7.40033H67.1601L68.9777 12.478L75.8297 28.6055H81.7153L88.5096 12.478L90.4137 7.40033H90.7311L90.558 12.478V30.4231H95.4049V0.0578613H88.4663L81.672 16.7335Z" fill="white"/>
<path d="M120.202 17.2385C120.202 11.0789 115.947 7.44373 109.873 7.44373C103.166 7.44373 98.9968 12.1608 98.9968 19.1426C98.9968 26.1245 102.488 30.8848 109.917 30.8848C115.99 30.8848 120.029 27.8988 120.029 23.2683V22.8644H115.182V23.225C115.182 25.259 113.725 26.5284 109.974 26.5284C105.257 26.5284 103.772 24.4367 103.584 20.3255H119.942C120.072 19.6475 120.216 18.4214 120.216 17.2385H120.202ZM103.613 17.051C103.887 13.56 105.517 11.5694 109.773 11.5694C113.624 11.5694 115.716 13.1994 115.528 17.051H103.613Z" fill="white"/>
<path d="M130.53 2.32315H126.765L125.727 7.89131H121.875V11.9737H125.64V23.485C125.64 28.5627 128.266 30.4236 133.3 30.4236C134.844 30.4236 136.387 30.2361 137.339 30.0197V26.0383H134.57C131.54 26.0383 130.53 25.6344 130.53 23.2687V11.9881H137.325V7.90574H130.53V2.32315Z" fill="white"/>
<path d="M150.163 7.44373C143.225 7.44373 138.926 12.1608 138.926 19.1426C138.926 26.1245 143.225 30.8848 150.163 30.8848C157.102 30.8848 161.228 26.1677 161.228 19.1426C161.228 12.1175 157.059 7.44373 150.163 7.44373ZM150.163 26.5284C145.403 26.5284 143.73 24.2203 143.73 19.1426C143.73 14.0649 145.403 11.8002 150.163 11.8002C154.924 11.8002 156.51 14.1082 156.51 19.1426C156.51 24.1771 154.88 26.5284 150.163 26.5284Z" fill="white"/>
<path d="M192.674 7.44373C188.231 7.44373 185.923 9.75177 184.885 12.1175H184.755C183.673 9.26131 181.221 7.44373 177.283 7.44373C172.984 7.44373 170.618 9.7085 169.58 12.1175H169.392V7.90534H164.906V30.4232H169.796V17.2818C169.796 13.1994 171.513 11.6559 175.234 11.6559C179.317 11.6559 180.543 13.3292 180.543 17.3683V30.4232H185.433V17.325C185.433 13.1994 187.15 11.6559 190.871 11.6559C194.954 11.6559 196.18 13.3292 196.18 17.3683V30.4232H201.07V16.2864C201.07 11.1654 198.488 7.44373 192.689 7.44373H192.674Z" fill="white"/>
<path d="M210.345 7.7608H205.455V30.4229H210.345V7.7608Z" fill="white"/>
<path d="M210.302 5.04901V0.0578613H205.412L205.455 5.04901H210.302Z" fill="white"/>
<path d="M234.912 16.9208V16.5168C234.912 11.1218 230.83 7.45776 224.901 7.45776C217.832 7.45776 213.707 12.1748 213.707 19.1999C213.707 26.2251 217.688 30.9421 224.728 30.9421C230.801 30.9421 234.926 27.2204 234.926 21.8831V21.4791H230.079V21.7532C230.079 25.0566 228.363 26.5136 224.598 26.5136C220.241 26.5136 218.568 24.1045 218.568 19.2144C218.568 14.3242 220.241 11.8719 224.598 11.8719C228.363 11.8719 230.079 13.3721 230.079 16.6755V16.9496H234.926L234.912 16.9208Z" fill="white"/>
<path d="M25.9038 0.0578613L22.9034 6.04436L19.9029 0.0578613H15.8061L0.558594 30.4375H45.2337L30.0006 0.0578613H25.9038ZM5.53532 27.3649L17.8401 2.81309L21.1723 9.46315L12.1998 27.3649H5.53532ZM15.633 27.3649L22.8889 12.8819L30.1449 27.3649H15.6186H15.633ZM33.5925 27.3649L24.62 9.46315L27.9522 2.81309L40.2714 27.3649H33.6069H33.5925Z" fill="white"/>
</svg>