<svg width="16" height="16" viewBox="0 0 16 16" fill="none" xmlns="http://www.w3.org/2000/svg">
<path d="M4.74303 8.1981C4.74303 7.76733 4.44376 7.51001 3.91608 7.51001C3.7007 7.51001 3.55503 7.53098 3.47852 7.55139V8.93493C3.5692 8.95533 3.68029 8.9627 3.83276 8.9627C4.39559 8.9627 4.74303 8.6776 4.74303 8.1981Z" fill="#322E4A" fill-opacity="0.75"/>
<path d="M8.01132 7.52368C7.77497 7.52368 7.62194 7.54465 7.53125 7.56562V10.6308C7.62194 10.6518 7.7676 10.6518 7.89967 10.6518C8.85868 10.6586 9.48442 10.1304 9.48442 9.01151C9.49179 8.03833 8.92159 7.52368 8.01132 7.52368Z" fill="#322E4A" fill-opacity="0.75"/>
<path d="M14.2732 5.72291H13.8889V3.86893C13.8886 3.85715 13.8874 3.84541 13.8855 3.83379C13.8861 3.75922 13.8597 3.68695 13.8112 3.63031L10.7262 0.107124L10.7239 0.104857C10.6847 0.0623422 10.6348 0.0312047 10.5794 0.0147366L10.5624 0.00906857C10.5388 0.00319717 10.5147 0.000152926 10.4904 0H2.90839C2.56208 0 2.28095 0.281696 2.28095 0.62744V5.72291H1.89667C1.40129 5.72291 1 6.1242 1 6.61958V11.2831C1 11.778 1.40186 12.1798 1.89667 12.1798H2.28095V15.3726C2.28095 15.7183 2.56208 16 2.90839 16H13.2614C13.6072 16 13.8889 15.7183 13.8889 15.3726V12.1798H14.2732C14.7685 12.1798 15.1698 11.778 15.1698 11.2831V6.61958C15.1698 6.1242 14.768 5.72291 14.2732 5.72291ZM2.90839 0.62744H10.1764V3.83775C10.1764 4.01119 10.3169 4.15119 10.4904 4.15119H13.262V5.72291H2.90839V0.62744ZM10.6111 8.9763C10.6111 9.87297 10.2846 10.4919 9.83177 10.8739C9.33866 11.2837 8.58822 11.4787 7.67059 11.4787C7.12136 11.4787 6.73254 11.4436 6.46785 11.4095V6.80775C6.85724 6.7454 7.36452 6.71083 7.90014 6.71083C8.78944 6.71083 9.36643 6.87066 9.81816 7.21131C10.305 7.57235 10.6111 8.14935 10.6111 8.9763ZM2.42888 11.4305V6.80775C2.75536 6.7522 3.21446 6.71083 3.8606 6.71083C4.51412 6.71083 4.98002 6.83609 5.29232 7.08605C5.59102 7.3224 5.79223 7.71179 5.79223 8.17032C5.79223 8.62942 5.63977 9.01824 5.36147 9.28237C4.99986 9.62301 4.46481 9.77605 3.83907 9.77605C3.7002 9.77605 3.57494 9.76924 3.47802 9.75507V11.4305H2.42888ZM13.2614 15.2025H2.90839V12.1798H13.2614V15.2025ZM14.1706 7.6143H12.3699V8.68497H14.0521V9.54706H12.3699V11.4305H11.3071V6.7454H14.1706V7.6143Z" fill="#322E4A" fill-opacity="0.75"/>
</svg>
