<svg width="16" height="16" viewBox="0 0 16 16" fill="none" xmlns="http://www.w3.org/2000/svg">
<path d="M13.3327 7.99984C13.3327 6.945 13.0199 5.91386 12.4339 5.0368C11.8478 4.15973 11.0149 3.47615 10.0403 3.07248C9.06579 2.66881 7.99343 2.56319 6.95887 2.76898C5.9243 2.97477 4.97399 3.48272 4.22811 4.2286C3.48223 4.97448 2.97428 5.92479 2.76849 6.95936C2.56271 7.99392 2.66832 9.06628 3.07199 10.0408C3.47566 11.0154 4.15925 11.8483 5.03631 12.4343C5.91337 13.0204 6.94452 13.3332 7.99935 13.3332L7.99935 7.99984L13.3327 7.99984Z" fill="#E4842A"/>
<path d="M16 8C16 12.4183 12.4183 16 8 16C3.58172 16 0 12.4183 0 8C0 3.58172 3.58172 0 8 0C12.4183 0 16 3.58172 16 8ZM1.2 8C1.2 11.7555 4.24446 14.8 8 14.8C11.7555 14.8 14.8 11.7555 14.8 8C14.8 4.24446 11.7555 1.2 8 1.2C4.24446 1.2 1.2 4.24446 1.2 8Z" fill="#E4842A"/>
</svg>
