<svg width="512" height="512" viewBox="0 0 512 512" fill="none" xmlns="http://www.w3.org/2000/svg">
<g clip-path="url(#clip0_1015_535)">
<path d="M414.012 419.266V480.809C414.012 498.102 399.996 512.117 382.711 512.117H33.5938C16.3086 512.117 2.29688 498.102 2.29688 480.809V419.266C2.29688 409.133 7.11328 400.125 14.5859 394.402C19.8516 390.363 26.4414 387.965 33.5938 387.965H382.711C399.996 387.965 414.012 401.98 414.012 419.266Z" fill="#22A6B3"/>
<path d="M450.086 179.645V323.902C450.086 338.82 438.004 350.906 423.094 350.906H160.602C145.684 350.906 133.598 338.82 133.598 323.902V179.645C133.598 164.734 145.684 152.652 160.602 152.652H423.094C438.004 152.652 450.086 164.734 450.086 179.645Z" fill="#FF8C47"/>
<path d="M357.07 25.0742V89.9375C357.07 103.227 346.293 114.012 332.996 114.012H85.0977C71.7969 114.012 61.0234 103.227 61.0234 89.9375V25.0742C61.0234 15.9922 66.0469 8.08984 73.4805 3.98828C76.9258 2.07812 80.8828 1 85.0977 1H332.996C346.293 1 357.07 11.7773 357.07 25.0742Z" fill="#58469B"/>
<g opacity="0.4">
<path d="M405.347 181.289H178.716C173.901 181.289 170 184.773 170 189.074C170 193.375 173.901 196.859 178.716 196.859H405.347C410.157 196.859 414.063 193.375 414.063 189.074C414.063 184.773 410.162 181.289 405.347 181.289Z" fill="white"/>
<path d="M405.347 223.09H178.716C173.901 223.09 170 226.574 170 230.875C170 235.176 173.901 238.664 178.716 238.664H405.347C410.157 238.664 414.063 235.176 414.063 230.875C414.063 226.574 410.162 223.09 405.347 223.09Z" fill="white"/>
<path d="M405.347 264.891H178.716C173.901 264.891 170 268.375 170 272.676C170 276.977 173.901 280.465 178.716 280.465H405.347C410.157 280.465 414.063 276.977 414.063 272.676C414.063 268.375 410.162 264.891 405.347 264.891Z" fill="white"/>
<path d="M405.347 306.691H178.716C173.901 306.691 170 310.176 170 314.477C170 318.777 173.901 322.266 178.716 322.266H405.347C410.157 322.266 414.063 318.777 414.063 314.477C414.063 310.176 410.162 306.691 405.347 306.691Z" fill="white"/>
</g>
<path d="M116.027 252.047C116.027 247.742 112.539 244.258 108.238 244.258H34.668C24.1406 244.258 15.5703 235.691 15.5703 225.164V85.8008C15.5703 75.2695 24.1406 66.7031 34.668 66.7031C38.9687 66.7031 42.4531 63.2187 42.4531 58.918C42.4531 54.6172 38.9687 51.1289 34.668 51.1289C15.5508 51.1289 0 66.6836 0 85.8008V225.164C0 244.277 15.5508 259.832 34.668 259.832H108.242C112.539 259.832 116.027 256.344 116.027 252.047Z" fill="#58469B"/>
<path opacity="0.4" d="M103.996 84.7461H314.098C318.398 84.7461 321.883 81.2578 321.883 76.957C321.883 72.6563 318.398 69.1719 314.098 69.1719H103.996C99.6953 69.1719 96.207 72.6563 96.207 76.957C96.207 81.2578 99.6953 84.7461 103.996 84.7461Z" fill="white"/>
<path opacity="0.4" d="M103.996 45.8359H314.098C318.398 45.8359 321.883 42.3516 321.883 38.0508C321.883 33.75 318.398 30.2656 314.098 30.2656H103.996C99.6953 30.2656 96.207 33.75 96.207 38.0508C96.207 42.3516 99.6953 45.8359 103.996 45.8359Z" fill="white"/>
<path opacity="0.3" d="M271.059 462H42.9444C39.1081 462 36 465.356 36 469.498C36 473.64 39.1081 477 42.9444 477H271.056C274.892 477 278 473.64 278 469.498C278 465.356 274.892 462 271.059 462Z" fill="white"/>
<path opacity="0.3" d="M271.059 423H42.9444C39.1081 423 36 426.357 36 430.5C36 434.643 39.1081 438 42.9444 438H271.056C274.892 438 278 434.643 278 430.5C278 426.357 274.892 423 271.059 423Z" fill="white"/>
<path d="M478.75 231.082C474.449 231.082 470.965 234.566 470.965 238.867C470.965 243.168 474.449 246.656 478.75 246.656C488.5 246.656 496.43 254.586 496.43 264.332V424.574C496.43 434.32 488.496 442.25 478.75 442.25H442.672C438.371 442.25 434.887 445.734 434.887 450.035C434.887 454.336 438.371 457.82 442.672 457.82H478.75C497.086 457.82 512 442.906 512 424.574V264.332C512 246 497.086 231.082 478.75 231.082Z" fill="#FF8C47"/>
<path d="M380.168 411.742C376.602 409.34 371.762 410.285 369.359 413.852L340.801 456.258L331.344 442.215C328.941 438.645 324.102 437.703 320.535 440.106C316.969 442.508 316.023 447.348 318.426 450.91L334.344 474.547C335.789 476.695 338.211 477.984 340.801 477.984C343.391 477.984 345.813 476.695 347.258 474.547L382.277 422.551C384.676 418.984 383.734 414.145 380.168 411.742Z" fill="white"/>
</g>
<defs>
<clipPath id="clip0_1015_535">
<rect width="512" height="512" fill="white"/>
</clipPath>
</defs>
</svg>
