<svg width="512" height="512" viewBox="0 0 512 512" fill="none" xmlns="http://www.w3.org/2000/svg">
<g clip-path="url(#clip0_1014_493)">
<path d="M376 452H136C127.709 452 121 445.291 121 437V256C121 181.557 181.557 121 256 121C330.681 121 391 181.701 391 256V437C391 445.291 384.291 452 376 452Z" fill="#FF8C47"/>
<path d="M406 497H106C97.709 497 91 490.291 91 482V437C91 428.709 97.709 422 106 422H406C414.291 422 421 428.709 421 437V482C421 490.291 414.291 497 406 497Z" fill="#58469B"/>
<path d="M256 361C264.284 361 271 354.284 271 346C271 337.716 264.284 331 256 331C247.716 331 241 337.716 241 346C241 354.284 247.716 361 256 361Z" fill="#58469B"/>
<path d="M256 301C247.709 301 241 294.291 241 286V226C241 217.709 247.709 211 256 211C264.291 211 271 217.709 271 226V286C271 294.291 264.291 301 256 301Z" fill="#58469B"/>
<path d="M46 271H15C6.709 271 0 264.291 0 256C0 247.709 6.709 241 15 241H46C54.291 241 61 247.709 61 256C61 264.291 54.291 271 46 271Z" fill="#FF8C47"/>
<path d="M497 271H466C457.709 271 451 264.291 451 256C451 247.709 457.709 241 466 241H497C505.291 241 512 247.709 512 256C512 264.291 505.291 271 497 271Z" fill="#FF8C47"/>
<path d="M256 61C247.709 61 241 54.291 241 46V15C241 6.709 247.709 0 256 0C264.291 0 271 6.709 271 15V46C271 54.291 264.291 61 256 61Z" fill="#FF8C47"/>
<path d="M96.8889 118.114L75.6779 96.903C69.8189 91.044 69.8189 81.551 75.6779 75.692C81.5369 69.833 91.0299 69.833 96.8889 75.692L118.1 96.903C123.959 102.762 123.959 112.255 118.1 118.114C112.24 123.973 102.748 123.974 96.8889 118.114Z" fill="#FF8C47"/>
<path d="M393.9 118.114C388.041 112.255 388.041 102.762 393.9 96.903L415.111 75.692C420.97 69.833 430.463 69.833 436.322 75.692C442.181 81.551 442.181 91.044 436.322 96.903L415.111 118.114C409.252 123.973 399.76 123.974 393.9 118.114Z" fill="#FF8C47"/>
<path d="M466 512H46C37.709 512 31 505.291 31 497C31 488.709 37.709 482 46 482H466C474.291 482 481 488.709 481 497C481 505.291 474.291 512 466 512Z" fill="#58469B"/>
</g>
<defs>
<clipPath id="clip0_1014_493">
<rect width="512" height="512" fill="white"/>
</clipPath>
</defs>
</svg>
