<svg version="1.1" id="Layer_1" xmlns:x="ns_extend;" xmlns:i="ns_ai;" xmlns:graph="ns_graphs;" xmlns="http://www.w3.org/2000/svg" xmlns:xlink="http://www.w3.org/1999/xlink" x="0px" y="0px" viewBox="0 0 672 113" style="enable-background:new 0 0 672 113;" xml:space="preserve">
 <style type="text/css">
  .st0{fill-rule:evenodd;clip-rule:evenodd;fill:#FFFFFF;}
	.st1{fill:#FFFFFF;}
 </style>
 <metadata>
  <sfw xmlns="ns_sfw;">
   <slices>
   </slices>
   <sliceSourceBounds bottomLeftOrigin="true" height="113" width="671.1" x="0" y="0">
   </sliceSourceBounds>
  </sfw>
 </metadata>
 <g>
  <path class="st0" d="M90.4,0l56.5,113h-113L90.4,0z M47.6,104.5h85.6L90.4,19L47.6,104.5z">
  </path>
  <path class="st0" d="M56.5,0L113,113H0L56.5,0z M56.5,19l-42.8,85.6h85.6L56.5,19z">
  </path>
  <path class="st1" d="M199.8,95.5h10.5V34l29,61.6h4.4l29-61v60.9h10.5V16h-12.7l-28.9,61.6L212.9,16h-13.1V95.5z M344.9,77.5
		c-3.2,6.4-9.6,10.4-17.6,10.4c-10.6,0-18.4-7.6-19.7-18.1h49v-3.6c0-16.2-12.1-29.2-29.4-29.2c-16.9,0-29.9,13.4-29.9,29.8
		c0,16.5,12.5,29.9,29.8,29.9c13.8,0,24.2-7.8,28-19.3H344.9z M327.3,46c8.9,0,16.5,5.4,18.9,15.3h-38C310.4,52.3,317.6,46,327.3,46
		z M372.7,20.7v17.7h-9.6v9.3h9.6v30.1c0,10.8,4.1,19.1,17.5,19.1c4.4,0,7.6-1,10.5-2.7v-9.3c-2.7,1.8-5.2,2.8-8.4,2.8
		c-7.3,0-9.3-3.7-9.3-10.6V47.7h14.9v-9.3h-14.9V18.2L372.7,20.7z M437.5,37.1c-17.7,0-30.4,13.4-30.4,29.8
		c0,16.5,12.7,29.9,30.4,29.9c17.6,0,30.4-13.4,30.4-29.9C467.9,50.5,455.1,37.1,437.5,37.1z M437.5,46.7c11.5,0,20.1,9,20.1,20.2
		c0,11.3-8.6,20.3-20.1,20.3s-20.1-9-20.1-20.3C417.4,55.7,426,46.7,437.5,46.7z M481.7,95.5h10.4V62.8c0-8.4,5.1-16.3,14.6-16.3
		c9.2,0,13.7,6.3,13.7,14.5v34.5h10.4V62.8c0-8.4,5.1-16.3,14.6-16.3c9.2,0,13.7,6.3,13.7,14.5v34.5h10.4v-36
		c0-13.1-8.2-22.4-21.6-22.4c-8.4,0-15.5,4.1-19.4,11.2c-3.4-6.9-10.1-11.2-19.1-11.2c-7.1,0-13.6,3.3-17.6,9.5v-8.1h-9.9V95.5z
		 M592.4,13.1c-4.5,0-7.3,3.3-7.3,7.1c0,3.7,2.8,7.1,7.3,7.1s7.3-3.4,7.3-7.1C599.7,16.4,596.9,13.1,592.4,13.1z M587.2,95.5h10.4
		V38.4h-10.4V95.5z M671,60.5c-2.7-13.3-14.1-23.4-29-23.4c-17.7,0-30.4,13.4-30.4,29.8c0,16.5,12.7,29.9,30.4,29.9
		c15,0,26.3-10.3,29.2-23.8h-10.3c-2.4,8.1-9.7,14.2-18.9,14.2c-11.5,0-20-9-20-20.3c0-11.2,8.5-20.2,20-20.2
		c9,0,16.2,5.8,18.6,13.8H671z">
  </path>
 </g>
</svg>