<svg width="672" height="113" viewBox="0 0 672 113" fill="none" xmlns="http://www.w3.org/2000/svg" xmlns:xlink="http://www.w3.org/1999/xlink">
 <path fill-rule="evenodd" clip-rule="evenodd" d="M90.4003 0L146.901 113H33.8999L90.4003 0ZM47.6128 104.525H133.188L90.4003 18.9506L47.6128 104.525Z" fill="#58469B">
 </path>
 <path fill-rule="evenodd" clip-rule="evenodd" d="M56.5001 0L113 113H0L56.5001 0ZM56.5001 18.9507L13.7129 104.525H99.2875L56.5001 18.9507Z" fill="#58469B">
 </path>
 <path d="M199.785 95.485H210.294V34.0128L239.335 95.598H243.742L272.783 34.5778V95.485H283.292V16.0458H270.636L241.708 77.631L212.893 16.0458H199.785V95.485ZM344.881 77.518C341.717 83.959 335.276 87.914 327.253 87.914C316.631 87.914 308.834 80.343 307.591 69.8339H356.633V66.2179C356.633 50.0589 344.542 37.0639 327.253 37.0639C310.303 37.0639 297.308 50.5109 297.308 66.8959C297.308 83.394 309.851 96.841 327.14 96.841C340.926 96.841 351.322 89.044 355.164 77.518H344.881ZM327.253 45.9909C336.18 45.9909 343.751 51.4149 346.124 61.2459H308.156C310.416 52.3189 317.648 45.9909 327.253 45.9909ZM372.746 20.6788V38.4199H363.141V47.6859H372.746V77.744C372.746 88.592 376.814 96.841 390.261 96.841C394.668 96.841 397.832 95.824 400.77 94.129V84.863C398.058 86.671 395.572 87.688 392.408 87.688C385.063 87.688 383.142 83.959 383.142 77.066V47.6859H398.058V38.4199H383.142V18.1928L372.746 20.6788ZM437.506 37.0639C419.765 37.0639 407.108 50.5109 407.108 66.8959C407.108 83.394 419.765 96.841 437.506 96.841C455.134 96.841 467.903 83.394 467.903 66.8959C467.903 50.5109 455.134 37.0639 437.506 37.0639ZM437.506 46.6689C449.032 46.6689 457.62 55.7089 457.62 66.8959C457.62 78.196 449.032 87.236 437.506 87.236C425.98 87.236 417.392 78.196 417.392 66.8959C417.392 55.7089 425.98 46.6689 437.506 46.6689ZM481.702 95.485H492.098V62.8279C492.098 54.4659 497.183 46.5559 506.675 46.5559C515.828 46.5559 520.348 52.8839 520.348 61.0199V95.485H530.746V62.8279C530.746 54.4659 535.831 46.5559 545.323 46.5559C554.476 46.5559 558.996 52.8839 558.996 61.0199V95.485H569.392V59.4379C569.392 46.3299 561.143 37.0639 547.809 37.0639C539.447 37.0639 532.327 41.1319 528.372 48.2509C524.982 41.3579 518.314 37.0639 509.274 37.0639C502.155 37.0639 495.714 40.3409 491.646 46.5559V38.4199H481.702V95.485ZM592.404 13.1078C587.884 13.1078 585.059 16.3848 585.059 20.2268C585.059 23.9558 587.884 27.3458 592.404 27.3458C596.924 27.3458 599.749 23.9558 599.749 20.2268C599.749 16.3848 596.924 13.1078 592.404 13.1078ZM587.206 95.485H597.602V38.4199H587.206V95.485ZM671.03 60.4549C668.318 47.1209 656.905 37.0639 641.989 37.0639C624.248 37.0639 611.592 50.5109 611.592 66.8959C611.592 83.394 624.248 96.841 641.989 96.841C657.018 96.841 668.318 86.558 671.143 72.998H660.86C658.487 81.134 651.142 87.236 641.989 87.236C630.463 87.236 621.988 78.196 621.988 66.8959C621.988 55.7089 630.463 46.6689 641.989 46.6689C651.029 46.6689 658.148 52.4319 660.634 60.4549H671.03Z" fill="#58469B">
 </path>
</svg>